<svg width="571" height="571" viewBox="0 0 571 571" fill="none" xmlns="http://www.w3.org/2000/svg">
<mask id="mask0_512_2" style="mask-type:alpha" maskUnits="userSpaceOnUse" x="0" y="0" width="571" height="571">
<path d="M0.873047 570.891H570.873V0.888759H0.873047V570.891Z" fill="#92C6CA"/>
</mask>
<g mask="url(#mask0_512_2)">
<path d="M0.873047 570.891H570.873V0.0792244H0.873047V570.891Z" fill="url(#paint0_linear_512_2)"/>
<g opacity="0.27">
<path d="M0.873047 1.85419V31.1045C110.589 35.996 447.334 57.5793 571.195 62.953V47.9867C351.981 33.5722 212.049 20.67 0.873047 1.85419Z" fill="#DFEEE3"/>
<path d="M0.873047 57.6188V81.6315C33.8585 82.9787 388.427 112.561 571.195 142.835V70.3473C277.114 65.807 133.408 62.9762 0.873047 57.6188Z" fill="#DFEEE3"/>
<path d="M0.873047 90.7025V121.829C147.408 143.017 308.454 167.213 571.195 190.472V174.324C399.242 148.192 28.8053 94.5186 0.873047 90.7025Z" fill="#DFEEE3"/>
</g>
<g opacity="0.490005">
<path d="M277.923 45.8109C269.269 41.6154 271.606 32.4454 255.069 32.4454C254.074 32.4454 253.079 32.4609 252.088 32.4609C232.848 32.4609 233.026 15.9759 220.202 8.41049C208.918 1.75366 194.871 3.38594 182.407 -0.348258H114.67C175.815 35.0221 298.782 79.7266 365.781 86.8854C352.253 78.8547 336.601 74.7424 322.66 67.3524C313.491 62.4925 306.037 54.533 296.359 50.6294C290.437 48.2407 283.646 48.5856 277.923 45.8109Z" fill="url(#paint1_linear_512_2)"/>
<path d="M75.4289 -0.348155H47.7241C91.1229 36.556 146.557 57.1719 201.845 73.4677C233.031 82.6594 264.793 85.6055 265.84 84.5621C162.606 28.9182 117.079 30.3708 80.4617 3.58637C78.8411 2.40106 77.1628 1.07181 75.4289 -0.348155Z" fill="url(#paint2_linear_512_2)"/>
<path d="M86.6289 44.9556C74.9513 37.6651 67.6334 26.9101 54.1703 21.9571C38.8375 16.3159 17.9767 14.3536 0.873047 7.50105V22.1752C48.7764 63.2279 141.536 84.5005 154.148 84.5005C156.745 84.5005 159.12 84.2458 161.185 83.6675C161.131 83.6414 117.542 64.2541 86.6289 44.9556Z" fill="url(#paint3_linear_512_2)"/>
<path d="M269.941 -0.348284H248.869C285.387 24.3918 342.837 41.3804 350.348 41.5538C339.145 27.2735 326.288 19.2562 308.041 16.2082C281.44 11.7652 274.046 5.84095 269.941 -0.348284Z" fill="url(#paint4_linear_512_2)"/>
</g>
<g opacity="0.490005">
<path d="M572.076 36.647C530.523 17.5693 500.64 8.63579 476.895 0.171521H435.576C471.762 21.8785 512.83 36.3365 553.818 48.4177C559.962 50.2285 566.127 51.7959 572.076 53.1392V36.647Z" fill="url(#paint5_linear_512_2)"/>
<path d="M413.01 0.171484H334.336C333.751 13.6088 495.376 59.4508 506.121 59.4508C508.718 59.4508 511.093 59.1958 513.158 58.6175C513.104 58.5914 469.515 39.2045 438.602 19.9053C429.072 13.9556 422.444 5.69938 413.01 0.171484Z" fill="url(#paint6_linear_512_2)"/>
</g>
<path d="M280.622 186.393L277.916 173.815L273.29 185.82L272.583 172.973L266.127 184.098L267.454 171.3L259.328 181.27L262.645 168.839L253.061 177.413L258.274 165.651L247.476 172.631L254.448 161.821L242.698 167.039L251.264 157.445L238.846 160.766L248.805 152.632L236.02 153.96L247.134 147.498L234.3 146.791L246.293 142.16L233.728 139.451L246.293 136.743L234.3 132.112L247.134 131.405L236.02 124.942L248.805 126.27L238.846 118.136L251.264 121.457L242.699 111.863L254.448 117.081L247.476 106.271L258.275 113.251L253.062 101.489L262.646 110.063L259.328 97.6325L267.454 107.602L266.128 94.8038L272.583 105.93L273.289 93.0828L277.916 105.088L280.622 92.5093L283.328 105.088L287.954 93.0828L288.66 105.93L295.116 94.8038L293.79 107.602L301.916 97.6328L298.598 110.064L308.182 101.49L302.969 113.251L313.768 106.272L306.795 117.081L318.545 111.863L309.979 121.457L322.397 118.136L312.439 126.27L325.223 124.942L314.109 131.405L326.943 132.111L314.95 136.743L327.516 139.451L314.95 142.16L326.943 146.791L314.109 147.498L325.223 153.96L312.438 152.633L322.397 160.767L309.979 157.446L318.544 167.039L306.795 161.821L313.767 172.631L302.968 165.652L308.181 177.413L298.597 168.839L301.915 181.27L293.789 171.301L295.116 184.098L288.66 172.973L287.954 185.82L283.328 173.815L280.622 186.393Z" fill="white" fill-opacity="0.31"/>
<path d="M307.126 139.451C307.126 154.104 295.26 165.983 280.621 165.983C265.984 165.983 254.117 154.104 254.117 139.451C254.117 124.799 265.984 112.92 280.621 112.92C295.26 112.92 307.126 124.799 307.126 139.451Z" fill="white"/>
<path d="M152.755 167.813C139.428 167.813 135.105 156.571 128.322 156.561C119.685 156.561 121.289 169.119 108.534 169.829C97.6324 170.436 90.7409 150.038 81.1874 132.517C73.311 118.072 66.8427 164.747 55.4836 164.747C49.5161 164.747 45.8801 152.198 38.5216 152.198C33.277 152.198 28.4098 157.905 23.4757 157.905C14.2256 157.905 13.0555 132.517 1.66373 132.517C1.39158 132.517 1.12888 132.53 0.873047 132.554V233.215C25.2651 237.757 48.5552 238.531 55.8338 238.531C91.0588 238.531 152.173 231.215 159.366 198.644C175.058 205.897 189.876 214.666 205.736 216.689C210.698 217.322 216.629 217.714 223.037 217.714C255.089 217.714 294.381 207.828 294.381 175.625C294.381 168.336 288.104 154.561 279.777 154.561C275.478 154.561 271.097 157.134 266.524 157.134C259.598 157.134 257.549 149.928 251.246 149.928C245.678 149.928 242.586 156.596 237.463 156.596C231.263 156.596 228.497 149.179 222.363 149.131C222.35 149.131 222.337 149.131 222.324 149.131C218.172 149.131 215.956 154.215 211.774 154.215C203.771 154.215 192.456 137.621 184.76 128.722C184.489 128.409 184.195 128.261 183.881 128.26C178.735 128.256 167.843 167.813 152.755 167.813Z" fill="url(#paint7_linear_512_2)"/>
<path d="M571.372 156.949C570.364 156.688 569.379 156.363 568.426 155.944C558.447 151.545 554.938 134.465 545.035 134.465C537.253 134.465 525.772 143.284 517.687 143.284C507.178 143.284 507.648 128.764 500.435 123.591C492.704 118.043 483.127 122.528 475.317 118.352C472.082 116.62 473.334 110.834 470.522 108.116C470.468 108.062 412.065 55.7763 410.748 55.7763C410.431 55.8479 410.426 56.2056 410.104 56.3129C408.861 63.692 409.22 68.2867 404.898 74.322C408.206 77.7406 409.509 80.5499 409.509 83.0361C409.509 88.5016 403.225 92.3995 398.184 97.7374C402.715 96.1669 406.445 93.0969 410.435 90.5228C411.839 91.6455 412.825 93.0062 413.757 94.5341C408.872 102.177 398.759 108.235 391.642 113.924C400.484 111.2 407.665 105.887 415.476 101.17C417.917 103.098 418.48 105.663 419.392 108.492C421.873 109.576 423.986 110.077 426.738 110.29C427.021 111.764 427.157 113.193 427.157 114.576C427.157 128.396 413.805 137.77 403.253 144.517C419.506 141.966 424.133 131.534 431.04 131.534C436.641 131.534 441.008 135.25 445.828 135.25C447.719 135.25 449.682 134.678 451.817 133.076C452.571 134.048 452.95 137.218 453.598 137.77C461.542 144.54 462.236 152.327 462.236 152.698C462.236 155.508 447.932 169.818 445.975 172.383C451.141 172.312 456.634 169.56 461.335 167.521C461.437 168.216 461.483 168.902 461.483 169.585C461.483 170.881 461.318 172.165 461.066 173.466C464.459 173.256 467.73 170.609 470.293 170.609C487.726 170.609 507.255 197.531 510.965 206.441L570.491 237.028C570.786 236.981 571.077 236.931 571.372 236.884V156.949Z" fill="#EC9976"/>
<path d="M373.939 95.1813C373.432 95.1813 372.925 95.1785 372.421 95.1785C372.248 95.1785 372.075 95.1813 371.905 95.1842C361.15 95.4506 360.529 104.06 354.186 110.39C349.465 115.104 341.383 114.945 336.079 119.005C327.685 125.423 322.48 135.628 313.956 141.664C300.811 150.976 313.795 135.6 266.301 168.704C247.18 182.031 217.72 181.728 217.72 218.268C217.72 228.3 219.906 238.613 220.829 248.439C227.297 247.929 233.808 247.872 240.327 247.872C242.238 247.872 244.15 247.878 246.061 247.878C280.741 247.878 287.985 242.761 309.822 242.761C333.856 242.761 377.631 248.796 410.997 248.796C427.009 248.796 467.442 247.673 511.011 243.812C531.101 242.032 551.859 239.671 571.195 236.564L511.668 205.976C507.959 197.066 488.43 170.145 470.996 170.145C468.434 170.145 465.163 172.792 461.77 173.002C462.022 171.701 462.186 170.417 462.186 169.121C462.186 168.438 462.141 167.752 462.039 167.057C457.338 169.096 451.844 171.848 446.679 171.919C448.636 169.354 462.94 155.044 462.94 152.234C462.94 151.863 462.246 144.076 454.302 137.306C453.654 136.753 453.274 133.584 452.521 132.612C450.386 134.214 448.423 134.786 446.532 134.786C441.712 134.786 437.345 131.07 431.743 131.07C424.837 131.07 420.209 141.502 403.957 144.053C414.509 137.306 427.861 127.932 427.861 114.112C427.861 112.729 427.725 111.3 427.442 109.826C424.689 109.613 422.577 109.111 420.096 108.029C419.184 105.2 418.62 102.634 416.179 100.706C408.369 105.423 401.187 110.736 392.346 113.46C399.463 107.771 409.575 101.713 414.46 94.0698C413.529 92.542 412.543 91.1813 411.139 90.0589C407.148 92.6327 403.419 95.7027 398.888 97.2732C403.929 91.9353 410.212 88.0374 410.212 82.5719C410.212 80.086 408.91 77.2767 405.602 73.8579C409.924 67.8226 409.533 63.1139 410.776 55.7351C398.667 57.5068 392.731 95.1813 373.939 95.1813Z" fill="url(#paint8_linear_512_2)"/>
<path d="M377.172 215.118C388.001 205.765 401.239 199.754 414.277 193.868C396.451 198.022 379.062 204.054 362.49 211.831C374.722 199.83 388.881 190.01 402.963 180.252C391.63 186.077 362.442 202.549 359.065 202.815C362.571 199.537 367.367 195.048 370.786 192.223C361.657 196.236 353.353 201.6 344.224 205.613C356.607 195.121 370.21 186.186 383.775 177.279C362.205 188.688 340.635 200.097 319.066 211.507C335.652 196.567 352.581 182.011 369.837 167.852C346.17 176.969 326.838 194.803 303.828 205.474C317.792 192.429 332.403 180.078 347.59 168.484C339.458 169.684 297.311 187.132 283.891 192.726C306.376 178.606 326.539 160.916 349.618 147.791C319.684 154.494 293.019 171.572 263.487 179.869C274.826 168.483 286.911 157.842 299.639 148.038C298.948 148.57 297.805 148.925 296.525 149.191C290.93 152.172 281.861 157.802 266.181 168.731C250.264 179.824 227.168 181.454 219.962 202.875C222.33 207.966 224.74 213.104 226.144 215.727C235.654 233.494 282.352 226.82 300.843 234.799C310.767 239.081 321.926 239.938 332.656 238.656C343.386 237.373 353.767 234.035 363.867 230.19C382.998 222.907 401.412 213.734 418.752 202.848C408.85 206.181 381.218 215.455 377.172 215.118Z" fill="#F1BD79"/>
<path d="M146.381 172.591H137.446V120.473H148.465L164.771 161.87L181.002 120.473H192.021V172.591H183.086V135.885L168.642 172.591H160.825L146.381 135.96V172.591Z" fill="#1B6C77"/>
<path d="M206.309 127.844C203.107 127.844 200.65 125.313 200.65 122.111C200.65 118.91 203.107 116.453 206.309 116.453C209.585 116.453 211.967 118.91 211.967 122.111C211.967 125.313 209.585 127.844 206.309 127.844ZM210.702 172.591H201.916V133.13H210.702V172.591Z" fill="#1B6C77"/>
<path d="M237.973 173.708C225.092 173.708 217.572 164.475 217.572 152.563C217.572 139.608 226.283 131.939 237.749 131.939C248.545 131.939 255.842 138.566 256.586 148.393H247.949C247.13 142.958 243.259 139.459 237.675 139.459C230.974 139.459 226.507 144.522 226.507 152.563C226.507 161.2 231.421 166.188 237.973 166.188C243.333 166.188 247.056 162.763 247.949 157.105H256.586C255.544 167.305 248.471 173.708 237.973 173.708Z" fill="#1B6C77"/>
<path d="M272.362 172.591H263.577V116.751H272.362V137.374C275.042 134.098 279.584 131.939 284.721 131.939C293.135 131.939 298.644 137.598 298.644 146.458V172.591H289.859V146.904C289.859 142.512 286.955 139.608 282.264 139.608C276.308 139.608 272.437 143.554 272.362 148.691V172.591Z" fill="#1B6C77"/>
<path d="M320.082 173.41C310.999 173.41 305.043 169.017 305.117 161.646C305.191 152.414 314.349 150.478 322.018 149.585C327.974 148.915 332.367 148.691 332.442 145.564C332.367 141.693 329.389 139.161 324.326 139.161C319.114 139.161 315.392 141.99 314.87 146.085H306.01C306.829 137.747 314.275 131.939 324.475 131.939C335.122 131.939 341.004 137.747 341.004 146.16V164.029C341.004 165.146 341.599 165.741 342.939 165.741H345.099V172.591H340.929C336.909 172.591 334.452 170.953 333.782 167.975C333.633 167.603 333.484 167.081 333.409 166.635C331.101 170.878 326.783 173.41 320.082 173.41ZM321.869 166.486C327.9 166.486 332.442 163.061 332.442 157.775V152.265C330.952 154.573 327.155 155.094 322.986 155.615C318.072 156.211 313.977 156.881 313.977 161.051C313.977 164.475 316.732 166.486 321.869 166.486Z" fill="#1B6C77"/>
<path d="M369.137 173.708C357.076 173.708 348.811 165.071 348.811 153.01C348.811 139.98 357.374 131.939 368.393 131.939C379.561 131.939 387.006 139.757 387.229 152.563V154.648H357.597C358.193 161.572 362.511 166.262 369.212 166.262C373.753 166.262 377.178 164.029 378.518 160.083H387.081C385.07 168.57 378.444 173.708 369.137 173.708ZM357.969 148.468H378.146C377.029 142.809 373.53 139.385 368.393 139.385C363.181 139.385 359.309 142.809 357.969 148.468Z" fill="#1B6C77"/>
<path d="M403.019 172.591H394.234V116.751H403.019V172.591Z" fill="#1B6C77"/>
<path d="M464.492 208.734C444.776 208.734 430.685 184.51 414.639 192.284C389.972 204.234 377.621 224.44 359.852 224.44C347.344 224.44 335.18 218.788 325.521 211.405C317.09 204.96 304.137 218.52 293.553 218.52C280.389 218.52 232.828 185.349 183.372 171.533C143.528 160.402 129.614 205.923 95.0089 205.923C59.0531 205.923 36.0641 173.713 -0.259766 172.572V252.746H570.943V174.081C568.442 173.396 566.074 172.386 563.902 170.912C560.001 168.263 555.869 167.126 551.565 167.125C525.514 167.12 492.961 208.734 464.492 208.734Z" fill="url(#paint9_linear_512_2)"/>
<path d="M570.872 247.855V366.139L18.6172 368.221L34.9694 247.855H570.872Z" fill="#E3C997"/>
<path d="M570.872 571.987V367.274L34.9691 364.52V248.989H0.873047V571.987H570.872Z" fill="#BDCCA9"/>
<path d="M566.321 216.488C566.321 216.488 564.373 188.194 564.556 184.842C564.097 188.282 559.458 220.038 559.458 220.038C559.458 220.038 555.718 190.216 555.718 188.581C555.718 186.947 550.451 220.038 550.451 220.038C550.451 220.038 547.021 198.474 547.021 197.681C547.021 196.888 541.968 218.928 541.968 218.928L537.324 194.542L533.305 217.769L528.292 195.169L521.041 221.561L514.752 193.759L508.742 227.484L503.874 194.065L497.233 228.424L491.854 189.39L488.05 214.165L486.123 202.834L483.734 212.174L481.101 196.7L474.022 224.389C474.022 224.389 468.32 202.032 468.016 199.96C467.916 200.738 466.952 204.33 465.757 208.614L462.011 189.401L458.011 214.488C458.011 214.488 454.583 201.25 454.256 200.269C453.93 199.289 448.95 219.235 448.95 219.235C448.95 219.235 445.705 204.14 445.586 201.513C445.208 204.449 441.949 223.69 441.949 223.69L438.718 198.229L434.047 227.329C434.047 227.329 432.091 199.036 432.274 195.683C431.813 199.124 427.154 230.88 427.154 230.88C427.154 230.88 423.398 201.057 423.398 199.423C423.398 197.789 418.108 230.88 418.108 230.88C418.108 230.88 414.664 209.316 414.664 208.523C414.664 207.729 409.588 229.769 409.588 229.769L404.925 205.384L400.888 228.61L395.854 206.01L388.571 232.402L382.255 204.6L376.219 238.326L371.329 204.906L364.66 239.265L359.258 200.232L355.437 225.007L353.501 213.676L351.103 223.015L348.458 207.542L341.349 235.23C341.349 235.23 335.622 212.873 335.317 210.802C335.231 211.467 334.509 214.192 333.551 217.648L329.613 197.45L325.613 222.537C325.613 222.537 322.185 209.299 321.858 208.318C321.532 207.338 316.552 227.285 316.552 227.285C316.552 227.285 313.307 212.19 313.188 209.562C312.81 212.498 309.551 231.739 309.551 231.739L306.32 206.278L301.649 235.379C301.649 235.379 299.693 207.085 299.876 203.733C299.416 207.173 294.756 238.929 294.756 238.929C294.756 238.929 291.001 209.107 291.001 207.472C291.001 205.838 285.71 238.929 285.71 238.929C285.71 238.929 282.266 217.365 282.266 216.572C282.266 215.779 277.191 237.818 277.191 237.818L272.527 213.433L268.49 236.659L263.456 214.06L256.174 240.452L249.857 212.649L243.821 246.375L238.931 212.955L232.262 247.314L226.86 208.281L223.04 233.056L221.103 221.725L218.705 231.065L216.061 215.591L208.951 243.28C208.951 243.28 203.224 220.923 202.919 218.851C202.803 219.75 201.526 224.412 200.073 229.556L193.814 197.45L189.814 222.537C189.814 222.537 186.385 209.299 186.059 208.318C185.732 207.338 180.752 227.285 180.752 227.285C180.752 227.285 177.507 212.19 177.388 209.562C177.01 212.498 173.751 231.739 173.751 231.739L170.52 206.278L165.849 235.379C165.849 235.379 163.893 207.085 164.076 203.733C163.616 207.173 158.956 238.929 158.956 238.929C158.956 238.929 155.201 209.107 155.201 207.472C155.201 205.838 149.91 238.929 149.91 238.929C149.91 238.929 146.466 217.365 146.466 216.572C146.466 215.779 141.391 237.818 141.391 237.818L136.727 213.433L132.69 236.659L127.656 214.06L120.374 240.452L114.057 212.649L108.021 246.375L103.132 212.955L96.4623 247.314L91.0603 208.281L87.24 233.056L85.3035 221.725L82.9054 231.065L80.2609 215.591L73.1508 243.28C73.1508 243.28 67.424 220.923 67.1192 218.851C66.8382 221.016 59.832 245 59.832 245L53.9011 230.146C53.9011 230.146 50.8555 241.346 48.8955 248.888H78.3284H89.9454H184.695H203.842H214.128H225.745H339.642L338.073 240.838H346.526H358.143H472.04L469.926 229.997H479.177H490.744H570.943V187.569L566.321 216.488Z" fill="#CD656B"/>
<path d="M0.873047 268.559H570.873V247.854H0.873047V268.559Z" fill="#F9DFC0"/>
<g opacity="0.490005">
<path d="M0.873047 455.213H449.534V447.226H0.873047V455.213Z" fill="#E3C997"/>
<path d="M0.873047 381.292V388.976L570.873 389.545V376.172L0.873047 381.292Z" fill="#E3C997"/>
<path d="M570.873 488.782H148.548V496.769H570.873V488.782Z" fill="#E3C997"/>
<path d="M0.873047 438.945L370.396 429.589L369.147 425.611L0.873047 434.935V438.945Z" fill="#E3C997"/>
<path d="M0.873047 428.015L370.396 418.659L369.147 414.681L0.873047 424.006V428.015Z" fill="#E3C997"/>
<path d="M0.873047 395.213V414.808L556.129 403.199V395.213H0.873047Z" fill="#E3C997"/>
<path d="M0.873047 465.578V486.963L570.873 479.076V465.578H0.873047Z" fill="#E3C997"/>
</g>
<path d="M570.872 511.955H0.873047V571.987H570.872V511.955Z" fill="#93CBB8"/>
<g opacity="0.490005">
<path d="M570.873 520.932L183.076 524.415L93.6816 531.541L570.873 532.017V520.932Z" fill="#BDCCA9"/>
<path d="M570.873 571.987V569.006L453.137 571.987H570.873Z" fill="#BDCCA9"/>
<path d="M179.808 571.987L570.874 562.085V558.077L91.3755 570.217L91.9312 571.987H179.808Z" fill="#BDCCA9"/>
<path d="M0.873047 537.914V562.299L570.873 550.383V537.914H0.873047Z" fill="#BDCCA9"/>
</g>
<g opacity="0.490005">
<path d="M2.1084 343.961H534.949V351.948H2.1084V343.961Z" fill="#F9DFC0"/>
<path d="M38.331 278.449L0.873047 281.429V285.627L572.076 286.196V273.665L38.331 278.449Z" fill="#F9DFC0"/>
<path d="M0.873047 338.332L528.579 330.131L527.327 326.153L0.873047 334.335V338.332Z" fill="#F9DFC0"/>
<path d="M0.873047 327.402L553 318.823L551.749 314.845L0.873047 323.405V327.402Z" fill="#F9DFC0"/>
<path d="M0.873047 291.948V313.306L572.076 301.389V291.948H0.873047Z" fill="#F9DFC0"/>
</g>
<g opacity="0.320007">
<path d="M247.048 270.445C247.478 270.487 248.268 269.87 249.278 268.826C247.785 265.732 245.455 262.807 243.823 260.709C245.028 264.512 246.397 270.383 247.048 270.445Z" fill="#F9DFC0"/>
<path d="M242.298 257.533C241.407 257.542 242.318 258.774 243.823 260.708C243.244 258.88 242.703 257.529 242.298 257.533Z" fill="#F9DFC0"/>
<path d="M234.724 345.091C235.201 354.568 213.747 350.744 215.003 360.172C216.407 370.716 236.809 368.501 239.259 378.79C241.41 387.829 219.284 384.769 221.845 393.871C224.894 404.709 244.802 401.661 248.189 412.489C251.026 421.559 228.801 418.687 231.85 427.569C235.529 438.284 255.264 435.242 258.761 446.186C261.664 455.271 239.52 452.267 242.266 461.266C245.507 471.887 265.585 469.005 268.224 479.882C270.473 489.152 248.608 485.734 250.341 494.962C252.293 505.349 272.783 503.144 273.825 513.578C274.765 522.99 253.364 519.298 253.323 528.658C253.282 538.115 274.37 537.632 272.813 547.275C271.199 557.278 251.634 552.616 248.46 562.355C246.658 567.887 253.78 569.616 258.84 571.987H374.833C374.989 571.577 375.112 571.158 375.194 570.725C377.063 560.889 355.347 564.282 355.732 554.611C356.136 544.507 377.067 544.389 375.596 534.03C374.1 523.484 354.179 528.199 351.384 517.918C348.732 508.169 369.789 507.13 366.176 497.338C362.198 486.557 343.463 491.746 338.772 481.224C334.571 471.801 355.125 469.961 350.486 460.644C345.196 450.024 327.051 455.056 321.452 444.531C316.558 435.331 336.898 433.117 332.08 423.951C326.558 413.446 308.451 418.497 302.977 407.839C298.188 398.515 318.71 396.613 314.513 387.26C309.793 376.741 291.18 382.015 286.901 371.149C283.048 361.367 304.11 360.4 301.337 350.57C298.363 340.027 278.519 344.912 276.775 334.457C275.071 324.243 296.056 324.269 296.104 313.878C296.151 303.876 274.594 307.627 276.153 297.765C277.941 286.461 298.238 287.706 302.368 277.186C304.68 271.299 296.107 269.724 290.96 267.505C289.454 269.341 288.399 270.524 288.238 270.445C288.238 270.445 288.995 269.113 290.122 267.121C288.984 266.564 288.094 265.952 287.651 265.217C285.209 268.291 283.309 270.553 283.087 270.445C283.087 270.445 294.897 249.686 294.593 249.468C294.593 249.468 278.609 270.769 277.938 270.445C277.938 270.445 289.749 249.686 289.445 249.468C289.445 249.468 273.461 270.769 272.79 270.445C272.79 270.445 284.601 249.686 284.296 249.468C284.296 249.468 268.312 270.769 267.641 270.445C267.641 270.445 279.451 249.686 279.147 249.468C279.147 249.468 263.163 270.769 262.492 270.445C262.492 270.445 274.303 249.686 273.999 249.468C273.999 249.468 258.015 270.769 257.343 270.445C257.343 270.445 269.154 249.686 268.85 249.468C268.85 249.468 252.867 270.769 252.196 270.445C252.196 270.445 264.007 249.686 263.703 249.468C263.703 249.468 254.04 263.906 249.278 268.827C250.725 271.824 251.384 274.98 249.854 277.692C244.37 287.409 225.971 282.416 221.821 292.774C218.209 301.789 239.274 302.31 237.338 311.393C235.242 321.225 214.935 316.722 214.077 326.474C213.218 336.251 234.223 335.128 234.724 345.091Z" fill="#F9DFC0"/>
<path d="M287.927 262.478C287.212 263.573 287.195 264.46 287.651 265.217C289.798 262.515 292.363 259.185 294.579 256.284C291.752 258.386 289.133 260.631 287.927 262.478Z" fill="#F9DFC0"/>
<path d="M299.744 249.468C299.744 249.468 297.458 252.514 294.579 256.284C295.456 255.632 296.353 254.994 297.234 254.385C298.762 251.588 299.838 249.536 299.744 249.468Z" fill="#F9DFC0"/>
<path d="M290.959 267.505C295.693 261.729 304.895 249.468 304.895 249.468C304.907 249.481 301.233 251.625 297.234 254.386C295.091 258.308 292.06 263.692 290.121 267.121C290.388 267.252 290.668 267.379 290.959 267.505Z" fill="#F9DFC0"/>
</g>
<path d="M222.991 257.754L220.646 265.708L216.164 245.522L207.394 275.269L201.095 246.419L198.527 253.689L194.269 234.187L182.556 267.344L179.139 252.19L176.538 258.698L172.313 239.957L164.733 258.926L162.463 246.625L159.139 253.368L155.637 234.393L147.613 250.666L144.346 229.947L140.963 239.549L137.52 217.715L127.66 245.694L123.141 229.947L121.389 235.397L116.315 217.715L107.391 245.476L105.642 237.69L103.115 244.588L98.8155 225.458L93.3314 240.427L91.5611 229.947L87.954 236.773L84.7349 217.715L76.7285 232.865L75.7899 219.353L70.7625 233.017L68.9636 207.121L63.4317 222.156L62.8196 205.614L57.0619 222.265L55.9934 193.382L48.4405 215.225L46.3495 191.601L42.3517 211.324L39.5233 179.368L33.0047 211.529L27.8207 186.448L25.4109 195.584L20.9945 174.216L14.4578 198.996L10.9391 182.34L8.65092 191.59L4.11288 170.108L0.873164 183.206V222.017L1.05803 222.287L0.873164 223.035V224.288L29.8797 266.616L108.583 286.817H229.442L222.991 257.754Z" fill="#588684"/>
<path d="M0.873047 295.973H251.719C241.418 289.251 261.134 302.388 212.014 277.113C201.503 271.704 190.161 275.84 179.585 271.295C172.163 268.106 171.707 259.044 161.9 259.044C160.29 259.044 158.664 259.215 157.065 259.215C144.341 259.215 145.467 243.467 125.831 243.467C118.53 243.467 111.826 246.368 104.747 246.368C98.6259 246.368 98.8646 238.983 90.0732 238.983C87.5278 238.983 84.9431 239.515 82.4655 239.515C74.2988 239.515 73.8335 232.608 68.0861 230.221C62.5396 227.918 55.2675 230.631 50.3978 226.644C45.027 222.247 35.8304 196.782 2.19943 196.782C1.75702 196.782 1.31489 196.792 0.873047 196.805V295.973Z" fill="#828F85"/>
<path d="M212.014 277.113C201.503 271.704 190.161 275.84 179.585 271.295C172.163 268.106 171.707 259.044 161.9 259.044C160.29 259.044 158.664 259.215 157.065 259.215C152.372 259.215 149.563 257.072 146.901 254.367C172.732 290.355 104.272 284.584 64.4162 255.238C43.578 239.894 22.1695 260.887 0.873207 241.427V284.043C5.86712 288.06 11.0287 292.103 16.2267 295.974L251.719 295.973C241.418 289.251 261.134 302.388 212.014 277.113Z" fill="#7A877D"/>
<path d="M568.339 188.528L565.35 207.355L559.63 177.889L554.947 207.386C554.946 207.384 554.945 207.381 554.945 207.38C554.729 206.728 553.333 211.407 551.693 217.424C549.971 210.773 546.651 197.993 546.236 196.741C545.926 195.803 543.174 205.89 540.766 215.135C540.32 212.568 540.016 210.535 539.971 209.537C539.667 211.907 538.286 220.402 536.896 228.808C535.943 224.322 531.446 202.972 531.263 198.898C531.031 200.701 530.176 206.052 529.168 212.211L528.11 203.841L523.997 229.577L519.401 193.202L517.169 207.17C517 203.385 516.919 200.569 516.981 199.426C516.509 202.969 513.48 223.824 511.097 240.186C510.334 228.871 508.007 193.657 508.272 188.787C507.868 191.82 505.59 207.542 503.447 222.27C502.431 213.74 501.653 206.894 501.653 205.912C501.653 204.512 499.424 217.805 497.168 231.619C495.297 216.423 492.944 196.98 492.944 195.273C492.944 193.649 489.946 211.791 487.384 227.585C486.89 224.289 486.568 222.016 486.568 221.696C486.568 221.008 484.378 230.214 482.188 239.595C480.426 228.413 477.859 211.96 477.859 211.056C477.859 210.293 475.16 221.725 472.757 232.053L469.748 216.251L466.566 234.637L461.039 205.612L456.85 229.818L454.082 217.338L450.569 230.125L445.374 206.699L436.253 239.896L430.597 214.892L427.82 230.475L421.888 204.253L415.402 240.647L411.728 215.422L407.646 236.543L403.019 204.783L395.729 242.503L390.88 207.315L387.063 232.176L382.171 196.676L375.573 239.649L372.229 219.995L368.087 236.194L363.52 209.355L354.274 245.52C351.963 236.256 349.773 227.289 349.533 225.649C349.38 226.834 348.07 231.789 346.348 238.015C343.773 227.73 341.092 216.834 340.824 215.01C340.339 218.764 328.238 260.366 328.238 260.366L317.996 234.601C317.996 234.601 312.736 254.027 309.351 267.109H338.077H359.717H360.183H380.246H381.699H399.119H401.738H419.257H421.291H570.943V236.167V201.943L568.339 188.528Z" fill="#588684"/>
<path d="M258.377 250.937H233.211V198.819H257.93C267.386 198.819 274.012 204.18 274.012 211.998C274.012 217.954 269.694 222.57 263.291 224.134C270.513 225.251 275.129 230.164 275.129 236.791C275.129 245.13 268.279 250.937 258.377 250.937ZM242.071 206.786V220.56H257.632C262.099 220.56 265.152 217.582 265.152 213.412C265.152 209.541 262.323 206.786 258.302 206.786H242.071ZM242.071 228.303V242.896H258.823C263.291 242.896 266.045 239.695 266.045 235.525C266.045 231.281 262.77 228.303 258.004 228.303H242.071Z" fill="#1B6C77"/>
<path d="M300.799 252.054C288.738 252.054 280.473 243.417 280.473 231.356C280.473 218.326 289.035 210.285 300.054 210.285C311.223 210.285 318.668 218.103 318.891 230.909V232.994H289.259C289.854 239.918 294.173 244.608 300.873 244.608C305.415 244.608 308.84 242.375 310.18 238.429H318.742C316.732 246.917 310.106 252.054 300.799 252.054ZM289.631 226.814H309.808C308.691 221.156 305.192 217.731 300.054 217.731C294.843 217.731 290.971 221.156 289.631 226.814Z" fill="#1B6C77"/>
<path d="M344.062 252.054C331.182 252.054 323.662 242.822 323.662 230.909C323.662 217.954 332.373 210.285 343.839 210.285C354.635 210.285 361.931 216.912 362.676 226.74H354.039C353.22 221.304 349.349 217.805 343.765 217.805C337.064 217.805 332.597 222.868 332.597 230.909C332.597 239.546 337.51 244.534 344.062 244.534C349.423 244.534 353.146 241.109 354.039 235.451H362.676C361.633 245.651 354.56 252.054 344.062 252.054Z" fill="#1B6C77"/>
<path d="M378.452 250.937H369.666V195.097H378.452V228.601L395.278 211.477H406L391.705 225.697L407.935 250.937H397.735L385.599 231.802L378.452 238.95V250.937Z" fill="#1B6C77"/>
<path d="M571.195 198.336C531.093 208.932 510.829 230.868 490.909 230.868C479.753 230.868 468.904 226.077 457.49 226.077C432.995 226.077 421.825 245.058 398.765 245.058C380.642 245.058 363.921 237.445 345.392 237.445C316.413 237.445 295.809 265.684 265.561 268.559H571.195V198.336Z" fill="#818E82"/>
<path d="M570.63 198.628C530.265 209.184 509.934 231.264 489.948 231.264C488.399 231.264 486.857 231.17 485.318 231.011C474.114 238.816 462.892 246.05 448.856 246.05C438.5 246.05 427.558 243.05 416.85 240.988C411.156 243.569 405.071 245.455 397.805 245.455C392.415 245.455 387.149 244.779 381.921 243.832C373.477 248.789 365.98 255.849 334.91 255.849C321.154 255.849 315.964 254.517 306.638 254.517C304.682 254.517 302.739 254.592 300.83 254.778C289.605 261.377 278.057 267.677 264.6 268.956H570.63V198.628Z" fill="#7A877D"/>
<path d="M416.85 240.988C427.558 243.051 438.501 246.05 448.856 246.05C462.892 246.05 474.114 238.816 485.318 231.011C475.77 230.024 466.36 226.474 456.53 226.474C439.753 226.474 429.227 235.377 416.85 240.988Z" fill="#818E82"/>
<path d="M334.911 255.849C365.981 255.849 373.478 248.789 381.922 243.833C369.576 241.597 357.45 237.841 344.432 237.841C328.345 237.841 314.838 246.544 300.831 254.778C302.74 254.593 304.682 254.517 306.638 254.517C315.965 254.517 321.154 255.849 334.911 255.849Z" fill="#818E82"/>
<path d="M332.781 256.175L325.681 234.307C325.681 234.307 323.271 245.206 320.9 256.175H332.781Z" fill="#588684"/>
<path d="M523.274 276.646C522.467 272.602 520.331 268.946 517.254 266.26C516.106 266.772 513.321 268.61 511.116 268.642C512.314 267.52 514.326 265.221 514.957 264.553C514.012 263.954 511.46 262.824 510.397 262.401C509.823 268.305 505.371 274.653 504.292 276.611C504.673 275.082 507.471 263.387 508.227 261.975C507.063 261.772 504.846 261.801 503.707 261.824C502.101 263.106 503.551 267.759 502.161 268.682C501.785 267.814 501.215 264.079 501.31 262.088C500.188 262.321 499.098 262.656 498.049 263.088C498.553 266.304 501.384 276.88 501.38 276.897C501.196 276.837 496.752 267.306 494.979 264.395C493.942 265.18 491.879 267.155 491.024 268.145C494.367 273.49 495.428 273.49 498.957 275.575C498.034 275.142 492.648 276.217 489.129 270.78C488.069 272.563 487.293 274.551 486.872 276.702C486.343 279.4 486.431 282.075 487.033 284.585L491.714 285.504L523.274 276.646Z" fill="#1B6C77"/>
<path d="M456.847 291.208C456.099 287.153 456.728 282.965 458.592 279.33C459.847 279.379 463.114 280.052 465.175 279.264C463.646 278.666 460.926 277.278 460.093 276.891C460.749 275.985 462.7 273.987 463.531 273.201C466.25 278.471 472.736 282.715 474.463 284.133C473.544 282.854 466.614 273.031 465.389 272C466.395 271.38 468.465 270.584 469.53 270.182C471.498 270.777 471.874 275.636 473.507 275.978C473.534 275.033 472.681 271.352 471.854 269.538C472.983 269.338 474.119 269.245 475.254 269.257C475.976 272.431 477.264 283.304 477.273 283.318C477.423 283.195 478.02 272.693 478.589 269.332C479.843 269.676 482.49 270.745 483.651 271.348C483.151 272.94 482.012 274.361 480.66 275.397C480.661 275.43 480.658 275.462 480.66 275.495C481.927 276.002 483.895 275.077 484.681 274.569C485.409 274.099 485.969 273.598 486.387 273.092C488.031 274.354 489.488 275.913 490.676 277.753C492.166 280.063 493.075 282.58 493.445 285.135L489.438 287.725L456.847 291.208Z" fill="#259198"/>
<path d="M503.67 275.305C493.777 281.306 479.353 276.893 468.533 280.559C455.495 284.976 450.921 296.313 435.32 299.413C420.242 302.409 404.38 296.02 393.545 310.893H571.51V208.285C520.635 229.66 526.142 261.674 503.67 275.305Z" fill="#47ACAA"/>
<path d="M450.3 336.068C446.686 336.068 443.229 336.691 440.044 337.824C435.446 334.917 429.896 333.217 423.919 333.217C410.886 333.217 399.882 341.296 396.365 352.366C385.498 356.181 377.767 365.95 377.767 377.401C377.767 392.174 390.631 404.149 406.499 404.149C419.531 404.149 430.536 396.071 434.053 385C434.093 384.985 434.134 384.971 434.175 384.957C438.772 387.864 444.323 389.564 450.3 389.564C466.168 389.564 479.032 377.588 479.032 362.816C479.032 348.043 466.168 336.068 450.3 336.068Z" fill="#79536B"/>
<path d="M433.607 350.155C433.635 350.126 437.871 347.129 438.076 342.041C438.934 343.276 439.318 344.461 439.318 345.525C439.318 348.163 436.959 350.059 433.607 350.155ZM408.251 354.903C404.97 354.903 401.828 352.308 401.056 348.518C403.407 349.184 404.443 352.553 412.389 352.553C412.762 352.553 413.11 352.51 413.366 352.378C411.859 354.137 410.034 354.903 408.251 354.903ZM378.48 380.327C381.316 379.791 389.617 376.396 390.741 373.657C390.816 373.648 390.89 373.639 390.965 373.631C391.415 374.361 391.786 375.033 391.786 375.961C391.786 382.084 378.509 380.339 378.48 380.327ZM466.021 335.13C464.962 337.236 462.991 341.567 461.32 343.012C457.852 338.356 462.69 334.99 463.178 333.911C462.014 333.605 458.331 332.387 457.094 332.299C458.159 339.806 456.424 345.831 454.22 345.259C451.048 344.436 453.605 336.675 455.28 332.328C453.672 332.549 450.423 333.452 448.961 334.033C448.279 334.305 447.582 334.517 446.877 334.673C447.803 336.182 448.304 337.993 448.304 339.994C448.304 343.558 442.574 341.542 443.64 334.494C441.971 334.202 438.401 333.874 436.929 332.953C437.107 334.013 437.198 335.033 437.198 336.017C437.198 340.493 433.015 345.022 428.679 347.587C429.642 342.436 433.261 336.672 435.519 332.003C433.446 330.64 427.901 328.712 425.46 328.012C425.848 333.976 425.492 345.423 421.17 344.074C418.028 343.094 420.056 332.019 423.919 328.012C421.888 328.202 415.434 328.633 413.577 329.279C415.106 331.808 416.23 334.467 416.23 337.228C416.23 338.554 415.97 339.907 415.37 341.276C412.271 338.381 411.317 334.018 410.417 330.22C407.859 331.659 404.651 334.441 402.751 336.652C404.993 341.551 408.236 345.273 412.433 349.601C412.447 349.607 412.461 349.616 412.475 349.625V349.644L412.433 349.601C407.316 346.792 403.558 343.504 400.898 339.099C400.236 340.088 399.644 341.131 399.129 342.214C398.157 344.258 396.864 346.605 392.788 347.576C397.963 350.749 399.121 357.591 401.576 362.816C399.5 361.753 393.406 353.316 390.523 348.029C388.513 348.761 384.165 350.639 382.434 351.835C384.207 357.709 392.539 357.224 396.741 364.19C395.424 363.819 384.207 357.709 379.526 354.174C377.581 355.997 374.349 359.687 373.379 362.816C375.5 366.861 389.913 364.956 389.941 364.949C385.873 368.153 374.556 369.117 372.375 366.185C371.849 368.209 371.568 370.33 371.568 372.518C371.568 372.674 371.571 372.833 371.574 372.989C380.87 376.218 388.154 370.108 389.024 370.762C388.068 374.21 376.161 378.792 371.568 374.841C372.796 388.636 385.113 397.62 396.648 397.62C408.581 397.62 418.567 389.277 421.101 378.1C421.325 378.105 421.551 378.109 421.775 378.109C430.449 378.109 438.09 373.703 442.595 367.004C446.169 370.417 451.009 372.518 456.341 372.518C467.346 372.518 476.269 363.586 476.269 352.57C476.269 345.072 472.135 338.537 466.021 335.13Z" fill="#473D63"/>
<path d="M399.081 347.031C395.75 345.722 395.751 342.429 394.24 339.861C397.069 339.917 400.09 341.897 400.09 344.462C400.09 345.274 399.788 346.144 399.081 347.031Z" fill="#79536B"/>
<path d="M371.872 363.627C370.327 362.598 368.381 362.151 366.452 362.151C365.049 362.151 363.655 362.387 362.431 362.808C364.35 363.523 366.62 364.344 368.785 364.344C369.858 364.344 370.905 364.142 371.872 363.627Z" fill="#79536B"/>
<path d="M376.375 377.781C376.198 377.774 376.025 377.771 375.856 377.771C372.352 377.771 370.746 379.272 368.016 381.269C368.493 381.312 368.979 381.337 369.466 381.337C372.277 381.337 375.111 380.514 376.375 377.781Z" fill="#79536B"/>
<path d="M399.837 370.023C400.2 369.299 400.51 368.031 400.51 366.807C400.51 365.164 399.951 363.6 398.214 363.536C397.994 364.323 397.881 365.042 397.881 365.715C397.881 367.298 398.505 368.632 399.837 370.023Z" fill="#79536B"/>
<path d="M417.845 350.67C417.24 346.112 414.619 345.023 410.86 343.567C412.226 347.028 413.918 350.002 417.845 350.67Z" fill="#79536B"/>
<path d="M440.217 339.189C441.254 337.48 442.73 335.031 442.73 332.802C442.73 331.815 442.441 330.872 441.698 330.055C440.492 331.945 439.863 334.125 439.863 336.336C439.863 337.288 439.979 338.246 440.217 339.189Z" fill="#79536B"/>
<path d="M443.048 348.686C446.131 348.121 449.016 346.646 450.859 344.049C450.598 344.31 448.448 344.237 447.898 344.461C445.812 345.311 444.521 347.084 443.048 348.686Z" fill="#79536B"/>
<path d="M404.393 365.553C405.305 364.397 407.626 361.795 407.626 359.863C407.626 359.514 407.551 359.188 407.378 358.896C405.276 360.342 404.93 363.221 404.393 365.553Z" fill="#79536B"/>
<path d="M389.525 353.363C388.22 348.512 385.176 346.889 380.719 345.342C382.754 349.229 384.99 352.467 389.525 353.363Z" fill="#79536B"/>
<path d="M381.172 360.592C377.31 358.639 374.524 357.751 370.388 357.751C370.188 357.751 369.985 357.753 369.778 357.757C371.326 360.031 374.984 360.898 378.127 360.898C379.247 360.898 380.301 360.788 381.172 360.592Z" fill="#79536B"/>
<path d="M306.903 403.612L307.121 412.731C317.743 411.68 322.043 401.02 322.043 401.02L321.199 396.435L306.903 403.612Z" fill="#79536B"/>
<path d="M299.553 342.59L305.284 346.816L305.417 310.741L299.553 342.59Z" fill="#A77697"/>
<path d="M305.417 404.359V397.192C305.417 397.192 305.916 396.96 306.736 396.575L306.203 374.161C305.684 373.902 305.417 373.712 305.417 373.712C305.417 373.712 305.702 373.559 306.181 373.298C308.121 372.238 314.079 372.124 316.704 370.348L313.112 351.979C310.284 356.792 305.732 354.416 305.732 354.416C305.732 354.416 312.655 352.09 313.106 351.954L311.424 343.35L307.496 344.004L310.995 341.022L305.417 310.741L305.284 346.792L305.284 346.816L298.775 346.816L297.003 356.439L304.974 359.852L305.417 360.043V366.211L304.827 365.985L304.42 383.103C304.967 383.3 305.284 383.414 305.284 383.414V393.225L304.188 392.829L303.714 412.738C304.263 412.788 304.831 412.815 305.417 412.815C306.004 412.815 306.57 412.786 307.121 412.731L306.903 403.612L305.417 404.359Z" fill="#79536B"/>
<path d="M296.491 359.819L295.016 367.587C294.857 367.262 304.697 371.461 304.697 371.461C304.697 371.461 297.941 373.569 295.016 367.587L292.851 378.98C296.736 380.355 302.303 382.345 304.42 383.103L304.827 365.985L296.491 359.819Z" fill="#79536B"/>
<path d="M317.27 375.098C311.57 376.339 307.756 374.94 306.203 374.161L306.469 385.368C306.343 385.295 318.581 382.218 318.581 382.218C318.581 382.218 313.508 389.416 306.469 385.368L306.736 396.575C309.827 395.132 317.482 391.544 320.059 390.249L317.27 375.098Z" fill="#79536B"/>
<path d="M289.863 395.213L303.97 401.993L304.188 392.829L291.97 383.768L288.794 401.02C288.794 401.02 292.679 411.72 303.714 412.738L303.97 401.993C303.969 401.993 294.338 405.614 289.863 395.213Z" fill="#79536B"/>
<path d="M303.34 428.468H307.495L307.121 412.731L306.903 403.612L306.736 396.575L306.203 374.161L306.181 373.298L305.417 341.191L305.284 346.792L305.284 346.816L304.974 359.852L304.827 365.985L304.42 383.103L304.188 392.829L303.714 412.738L303.34 428.468Z" fill="#0C3C5F"/>
<path d="M342.794 346.134L354.156 342.006C354.156 342.006 350.825 350.583 342.794 346.134ZM353.009 335.781L342.009 339.978L342.509 361.011C345.11 360.08 351.464 354.995 356.237 353.305L353.009 335.781Z" fill="#473D63"/>
<path d="M326.719 351.175L325.53 357.634L340.017 361.011C340.017 361.011 330.865 364.89 325.53 357.634L323.293 369.792C326.458 371.382 335.865 375.792 339.662 377.565L340.318 350.024C338.41 350.981 333.723 352.701 326.719 351.175Z" fill="#473D63"/>
<path d="M358.046 363.133L342.793 372.962L343.161 388.369L360.888 378.568C360.888 378.568 354.09 391.107 343.161 388.369L343.377 397.425C356.936 396.174 361.709 383.026 361.709 383.026L358.046 363.133Z" fill="#473D63"/>
<path d="M341.447 373.449V361.393C341.447 361.393 341.837 361.253 342.509 361.011L342.009 339.978L341.283 340.255V332.677L341.829 332.442L351.622 328.248L349.445 316.424H341.447V316.395L340.588 268.324L334.43 309.305L338.73 312.97L333.903 312.165L331.55 324.947L340.819 329.052V334.702L330.65 329.835L328.412 341.985C331.637 344.167 337.961 347.662 340.345 348.964C340.934 349.284 341.283 349.472 341.283 349.472C341.283 349.472 340.955 349.706 340.318 350.024L339.662 377.565C340.67 378.038 341.283 378.323 341.283 378.323V387.129L339.458 386.212L339.189 397.417C339.867 397.484 340.563 397.519 341.283 397.519C342.003 397.519 342.702 397.487 343.377 397.425L342.793 372.962L341.447 373.449Z" fill="#554D76"/>
<path d="M339.458 386.212L339.189 397.417C326.138 396.126 320.855 383.026 320.855 383.026L322.536 373.897L339.458 386.212Z" fill="#473D63"/>
<path d="M347.794 307.458L341.447 316.424L340.588 268.324L347.794 307.458Z" fill="#473D63"/>
<path d="M343.836 416.752H338.73L339.189 397.417L339.458 386.212L339.662 377.565L340.318 350.024L340.345 348.964L341.283 309.513L341.447 316.395V316.424L341.829 332.442L342.009 339.978L342.509 361.011L342.793 372.962L343.377 397.425L343.836 416.752Z" fill="#0C3C5F"/>
<path d="M279.147 443.781C279.226 442.208 279.724 430.192 280.194 428.661C279.013 428.686 276.843 429.142 275.73 429.383C274.4 430.951 276.717 435.238 275.531 436.411C274.996 435.632 273.718 432.077 273.429 430.104C272.372 430.549 271.367 431.088 270.421 431.714C271.534 434.773 276.345 444.606 276.345 444.623C276.152 444.6 269.959 436.102 267.659 433.588C266.793 434.557 265.148 436.893 264.5 438.03C265.783 439.096 267.51 439.671 269.206 439.808C269.223 439.836 269.243 439.861 269.26 439.89C268.47 441.004 266.315 441.296 265.38 441.296C264.514 441.296 263.772 441.179 263.146 440.981C262.45 442.934 262.07 445.035 262.07 447.226C262.07 449.976 262.67 452.584 263.744 454.931H297.5C298.57 452.584 299.173 449.976 299.173 447.226C299.173 440.343 295.433 434.336 289.876 431.127C288.848 431.85 286.469 434.19 284.311 434.647C285.271 433.314 286.804 430.671 287.294 429.894C286.252 429.489 283.53 428.871 282.406 428.661C282.977 434.565 279.83 441.652 279.147 443.781Z" fill="url(#paint10_linear_512_2)"/>
<path d="M518.318 323.453C511.306 323.453 504.761 321.985 498.01 321.985C474.361 321.985 467.44 341.933 452.394 349.147C440.931 354.647 427.105 350.628 414.313 359.112C407.002 363.962 404.325 373.57 396.348 377.541C387.685 381.85 376.862 381.405 367.794 385.073C360.564 387.999 357.208 395.908 350.471 399.085C343.904 402.184 336.144 400.778 329.631 404.421C310.912 414.89 320.071 418.3 293.519 432.134C293.108 432.349 292.686 432.567 292.258 432.785C281.157 438.469 251.706 447.373 245.289 457.76H571.509V303.404C566.247 301.132 561.86 300.182 558.114 300.182C538.874 300.182 538.059 323.453 518.318 323.453Z" fill="#1B6C77"/>
<path d="M571.509 374.006C557.551 383.665 542.312 391.523 524.858 391.523C509.759 391.523 500.806 380.675 488.783 380.675C472.172 380.675 475.488 409.786 435.09 409.786C423.234 409.786 416.613 402.809 401.792 402.809C351.191 402.809 371.548 432.546 331.364 432.546C328.528 432.546 325.674 432.456 322.827 432.456C295.094 432.456 306.739 450.095 276.926 450.095C271.251 450.095 265.554 448.929 260.462 446.583C253.577 450.026 247.745 453.784 245.289 457.76H571.509V374.006Z" fill="#0C3C5F"/>
<path d="M154.953 353.49C155.267 349.378 154.196 345.281 151.958 341.864C150.715 342.046 147.538 343.063 145.406 342.498C146.862 341.741 149.42 340.071 150.207 339.599C149.458 338.767 147.306 336.988 146.396 336.294C144.251 341.824 138.253 346.734 136.686 348.327C137.464 346.958 143.314 336.453 144.422 335.298C143.356 334.788 141.213 334.217 140.111 333.93C138.218 334.731 138.359 339.603 136.772 340.116C136.645 339.179 137.102 335.429 137.732 333.537C136.588 333.458 135.449 333.486 134.322 333.619C133.94 336.852 133.813 347.8 133.805 347.815C133.644 347.708 131.935 337.329 131.013 334.048C129.803 334.523 127.285 335.867 126.194 336.59C126.86 338.12 128.144 339.412 129.597 340.298C129.6 340.331 129.606 340.363 129.609 340.396C128.402 341.035 126.346 340.324 125.512 339.903C124.738 339.512 124.128 339.074 123.658 338.615C122.158 340.045 120.874 341.75 119.888 343.706C118.652 346.162 118.015 348.761 117.917 351.34L122.177 353.49H154.953Z" fill="#0C3C5F"/>
<path d="M41.2163 273.32C42.2133 269.318 41.8435 265.099 40.2081 261.355C38.9521 261.327 35.6494 261.796 33.642 260.882C35.2047 260.38 38.0055 259.163 38.8602 258.829C38.2616 257.883 36.4373 255.769 35.6566 254.932C32.6169 260.024 25.8823 263.859 24.0708 265.168C25.0673 263.948 32.5909 254.572 33.8766 253.619C32.9111 252.938 30.8942 252.016 29.8554 251.548C27.8554 252.021 27.1797 256.847 25.5288 257.087C25.5603 256.142 26.6386 252.521 27.5758 250.762C26.4617 250.492 25.3334 250.329 24.2005 250.271C23.283 253.394 21.3262 264.167 21.3162 264.18C21.1745 264.047 21.2269 253.529 20.8666 250.139C19.5943 250.404 16.886 251.308 15.6901 251.838C16.091 253.458 17.1404 254.947 18.425 256.064C18.4219 256.097 18.4227 256.129 18.4196 256.162C17.1232 256.59 15.2156 255.545 14.4633 254.989C13.7659 254.475 13.2374 253.94 12.8513 253.409C11.1329 254.567 9.58215 256.033 8.28323 257.796C6.65322 260.01 5.5904 262.466 5.06299 264.992L8.9025 267.826L41.2163 273.32Z" fill="#0C3C5F"/>
<path d="M121.298 306.146L126.85 304.129C126.85 304.129 125.223 308.32 121.298 306.146ZM126.29 301.087L120.915 303.138L121.159 313.416C122.43 312.961 125.535 310.476 127.868 309.65L126.29 301.087Z" fill="#1B6C77"/>
<path d="M113.443 308.609L112.862 311.766L119.942 313.416C119.942 313.416 115.469 315.311 112.862 311.766L111.769 317.707C113.316 318.484 117.912 320.638 119.768 321.505L120.089 308.047C119.156 308.515 116.866 309.355 113.443 308.609Z" fill="#1B6C77"/>
<path d="M128.752 314.452L121.298 319.255L121.478 326.785L130.14 321.996C130.14 321.996 126.818 328.122 121.478 326.785L121.583 331.21C128.209 330.599 130.541 324.174 130.541 324.174L128.752 314.452Z" fill="#1B6C77"/>
<path d="M120.64 319.494V313.603C120.64 313.603 120.831 313.534 121.159 313.416L120.915 303.138L120.56 303.273V299.57L120.827 299.456L125.613 297.406L124.549 291.628H120.64V291.613L120.221 268.123L117.211 288.149L119.313 289.94L116.954 289.547L115.804 295.793L120.333 297.798V300.559L115.364 298.181L114.271 304.118C115.847 305.185 118.937 306.893 120.102 307.529C120.39 307.685 120.56 307.777 120.56 307.777C120.56 307.777 120.4 307.892 120.089 308.047L119.768 321.505C120.261 321.736 120.56 321.876 120.56 321.876V326.179L119.669 325.73L119.537 331.206C119.868 331.239 120.208 331.256 120.56 331.256C120.912 331.256 121.254 331.24 121.583 331.21L121.298 319.255L120.64 319.494Z" fill="#1B6C77"/>
<path d="M119.669 325.73L119.537 331.206C113.16 330.575 110.578 324.174 110.578 324.174L111.399 319.713L119.669 325.73Z" fill="#1B6C77"/>
<path d="M123.742 287.246L120.64 291.628L120.221 268.123L123.742 287.246Z" fill="#259198"/>
<path d="M121.808 340.654H119.313L119.537 331.206L119.669 325.73L119.768 321.505L120.089 308.047L120.102 307.529L120.56 288.251L120.64 291.613V291.628L120.827 299.456L120.915 303.138L121.159 313.416L121.298 319.255L121.583 331.21L121.808 340.654Z" fill="#1B6C77"/>
<path d="M0.873047 362.693L170.254 366.14C149.12 339.737 124.799 341.226 121.039 339.757C113.909 336.972 110.493 328.436 104.292 324.225C97.204 319.413 88.4492 319.411 81.3268 314.736C66.1528 304.775 65.1486 284.872 48.5346 275.6C33.7386 267.342 14.9531 264.025 0.873047 254.989V362.693Z" fill="#1C6D78"/>
<path d="M148.875 410.484H175.76C175.572 403.212 163.405 393.526 156.095 393.526C148.784 393.526 148.875 403.212 148.875 410.484Z" fill="#47ACAA"/>
<path d="M498.235 520.757H543.977C543.977 508.384 533.544 499.789 521.106 499.789C508.668 499.789 498.554 508.384 498.235 520.757Z" fill="#0C3C5F"/>
<path d="M179.859 434.565H206.743C206.556 427.292 200.611 421.556 193.301 421.556C185.991 421.556 179.859 427.292 179.859 434.565Z" fill="#47ACAA"/>
<path d="M184.695 310.893C184.602 307.257 181.629 304.389 177.974 304.389C174.319 304.389 171.253 307.257 171.253 310.893H184.695Z" fill="#818E82"/>
<path d="M371.55 469.107H432.728C428.775 454.601 415.105 439.41 399.709 439.41C381.617 439.41 375.853 456.588 371.55 469.107Z" fill="#1B6C77"/>
<path d="M91.5454 370.579H127.605C124.813 363.101 115.608 357.01 107.233 357.01C98.5786 357.01 94.6014 362.952 91.5454 370.579Z" fill="#47ACAA"/>
<path d="M397.356 291.28C400.042 290.407 401.168 288.973 401.168 287.422C401.168 284.108 396.028 280.266 390.006 280.266C384.886 280.266 379.131 283.045 375.35 291.28H397.356Z" fill="#818E82"/>
<path d="M435.58 291.279C430.894 286.024 425.482 281.773 421.591 281.773C417.718 281.773 414.016 284.718 410.037 291.279C410.037 291.279 435.205 291.755 435.58 291.279Z" fill="#818E82"/>
<path d="M169.078 322.131C164.826 313.818 159.212 309.835 153.446 309.835C147.5 309.835 141.395 314.067 136.463 322.131H169.078Z" fill="#818E82"/>
<path d="M210.854 322.131C204.989 316.335 199.75 312.466 194.978 312.466C190.905 312.466 187.173 315.29 183.68 322.131H210.854Z" fill="#818E82"/>
<path d="M0.873047 570.695H354.204C330.709 547.168 299.733 550.648 276.074 526.87C267.666 518.419 259.963 512.203 252.762 507.488C225.355 489.535 205.234 493.32 181.344 478.443C172.585 472.989 173.454 461.74 167.131 454.503C158.791 444.955 144.606 442.393 136.278 433.271C127.04 423.156 127.759 407.902 118.98 397.249C111.275 387.897 99.7177 387.687 90.4178 381.127C77.0598 371.702 74.3807 352.759 52.1503 352.759C49.6612 352.759 47.1632 352.901 44.6856 352.901C21.3555 352.901 18.713 330.547 0.873047 330.161V570.695Z" fill="#1B5466"/>
<path d="M0.873047 570.695H353.58C330.163 547.844 299.524 551.055 276.074 527.487C267.666 519.037 259.964 512.82 252.762 508.105C235.714 531.949 206.916 544.014 179.86 543.742C102.629 542.959 113.835 506.699 89.3389 502.005C6.33455 486.095 13.485 439.681 0.873047 396.75V570.695Z" fill="url(#paint11_linear_512_2)"/>
<path d="M133.627 571.256C140.8 552.83 136.03 530.285 119.945 514.838C99.0664 494.787 67.0402 494.29 48.4121 513.726C33.6908 529.087 31.7463 552.299 41.8812 571.256H133.627Z" fill="#79536B"/>
<path d="M89.0708 571.256C95.7302 553.006 90.8531 530.956 75.0377 515.768C54.1595 495.717 22.133 495.22 3.50493 514.657C2.5766 515.626 1.70007 516.626 0.873047 517.654V570.537L30.5518 571.256H89.0708Z" fill="#79536B"/>
<path d="M164.168 571.256C161.344 564.225 156.966 557.595 151.06 551.923C130.182 531.872 98.1552 531.375 79.5271 550.812C73.8845 556.699 70.1257 563.743 68.1975 571.256H164.168Z" fill="#79536B"/>
<path d="M173.131 571.256C173.064 571.022 172.999 570.787 172.927 570.554C172.353 570.757 171.696 570.996 170.985 571.256H173.131Z" fill="#473D63"/>
<path d="M70.5682 506.081C72.822 509.929 69.9372 515.669 80.3929 525.71C80.8834 526.182 81.3953 526.565 81.8973 526.715C77.6972 527.123 74.3301 525.827 71.9838 523.574C67.667 519.428 66.8056 512.043 70.5682 506.081ZM127.445 544.336C127.015 547.046 126.027 549.09 124.684 550.491C121.359 553.961 115.865 553.475 111.333 549.365C111.406 549.364 120.76 550.773 127.445 544.336ZM2.85117 565.116C5.09587 567.272 7.50397 569.152 10.0325 570.759L30.5518 571.256L58.1728 571.256C58.6662 570.957 59.1567 570.651 59.6406 570.331C59.9276 570.622 60.2224 570.912 60.5165 571.194C60.5386 571.215 60.5612 571.235 60.5829 571.256H157.851C160.912 564.902 169.002 566.049 170.724 565.358C169.579 563.485 166.268 557.229 164.751 555.549C156.687 566.773 146.807 572.507 144.629 568.97C141.493 563.878 154.643 556.898 162.33 553.296C159.935 551.554 154.521 548.636 151.865 547.554C150.624 547.05 149.439 546.45 148.315 545.764C147.631 548.918 146.007 551.935 143.483 554.568C138.99 559.257 133.992 549.364 144.282 541.436C142.456 538.945 138.171 534.002 137.395 530.929C136.293 532.55 135.125 534.007 133.885 535.301C128.241 541.191 117.027 541.863 108.088 539.76C115.85 534.2 127.88 531.189 136.737 527.898C135.729 523.484 130.865 513.942 128.536 509.937C121.526 518.274 106.622 532.885 102.636 525.649C99.7384 520.39 116.372 508.382 126.509 507.989C123.597 505.674 114.562 498.086 111.303 496.589C110.127 501.848 108.253 506.767 104.771 510.4C103.098 512.145 101.05 513.596 98.5339 514.638C98.1072 506.915 102.354 499.969 105.959 493.833C100.778 492.496 93.0492 492.102 87.7608 492.61C84.5349 501.89 84.1076 510.884 84.1712 521.882C84.1826 521.908 84.1906 521.937 84.1983 521.966L84.1734 521.992L84.1712 521.882C80.9807 511.72 80.1828 502.645 82.2392 493.489C80.1196 493.953 78.0254 494.578 75.9816 495.351C72.1264 496.813 67.4658 498.266 60.878 494.394C63.6864 505.109 56.5812 515.574 53.2236 525.55C51.8328 521.529 54.4532 502.728 57.3269 492.129C53.7593 490.551 45.6696 487.529 41.8847 486.916C36.8104 496.884 48.3845 506.774 45.1296 521.25C43.8653 519.097 36.8104 496.884 35.1088 486.318C30.2506 486.258 21.3462 487.03 16.1233 489.921C13.814 497.924 35.1798 513.628 35.2253 513.656C25.833 512.73 9.72749 499.698 10.5548 493.087C7.30937 495.084 4.26684 497.52 1.50704 500.399C1.31044 500.604 1.11413 500.817 0.921252 501.026C9.07961 517.02 26.3676 518.185 26.6892 520.145C22.0791 522.882 6.76165 517.271 0.873176 509.073V519.481C5.41981 522.387 20.4056 528.29 25.2976 526.123C25.4066 526.206 25.5154 526.289 25.6244 526.372C25.2956 527.9 24.9376 529.255 23.7672 530.476C16.435 538.126 2.298 521.314 0.873176 519.556V563.079C1.51133 563.782 2.17037 564.463 2.85117 565.116Z" fill="#473D63"/>
<path d="M72.5174 486.078C76.1677 489.726 77.6469 496.149 74.4121 499.524Z" fill="#79536B"/>
<path d="M13.118 489.084C12.3823 485.777 10.3854 482.73 7.84765 480.293C7.86997 480.495 7.87655 480.696 7.87168 480.896C7.84765 481.892 7.54259 482.871 7.51855 483.869C7.41553 488.127 10.4704 488.339 13.118 489.084Z" fill="#79536B"/>
<path d="M41.8474 532.835C43.2364 532.341 45.2436 531.064 46.7878 529.453C48.8588 527.292 50.0967 524.53 47.8912 522.249" fill="#79536B"/>
<path d="M89.9441 530.127C94.8959 523.365 92.8203 518.62 89.7114 511.955Z" fill="#79536B"/>
<path d="M133.857 543.289C137.376 542.351 142.408 540.994 145.219 538.06C146.463 536.763 147.272 535.157 147.324 533.143C143.354 534.105 139.777 536.179 136.989 539.088C135.788 540.34 134.734 541.748 133.857 543.289Z" fill="#79536B"/>
<path d="M137.316 559.931C133.499 558.414 129.566 559.117 125.608 559.363Z" fill="#79536B"/>
<path d="M65.8011 527.724C61.211 526.971 57.1257 530.321 53.4785 532.711Z" fill="#79536B"/>
<path d="M49.2881 497.887C53.6879 489.854 51.7302 483.872 47.8157 476.205C45.5928 483.891 44.451 490.977 49.2881 497.887Z" fill="#79536B"/>
<path d="M29.1808 496.842C26.5632 489.394 24.0177 484.704 18.5763 479.478C18.313 479.225 18.0429 478.971 17.7656 478.715C16.9345 483.664 20.6547 489.426 24.7898 493.397C26.2633 494.812 27.7891 495.999 29.1808 496.842Z" fill="#79536B"/>
<path fill-rule="evenodd" clip-rule="evenodd" d="M198.869 447.109C199.885 447.321 200.537 448.317 200.324 449.333C199.609 452.755 199.282 456.114 199.282 459.421C199.282 469.329 201.066 475.942 203.569 481.712C203.839 475.422 205.992 469.066 207.981 463.194C208.22 462.49 208.456 461.792 208.686 461.103C209.015 460.118 210.08 459.587 211.064 459.916C212.049 460.244 212.581 461.309 212.252 462.294C212.021 462.983 211.789 463.671 211.558 464.356C209.4 470.744 207.3 476.965 207.3 483.018C207.3 486.928 208.187 490.716 210.544 494.363C210.855 494.844 210.918 495.414 210.766 495.923C211.398 497.226 212.018 498.577 212.613 500.001C212.726 500.18 212.807 500.377 212.854 500.582C213.184 501.39 213.505 502.221 213.817 503.08C216.936 499.241 219.146 495.173 220.51 490.895C215.455 484.131 214.317 477.284 213.484 469.402C213.375 468.37 214.124 467.445 215.156 467.336C216.188 467.227 217.113 467.975 217.223 469.007C217.915 475.565 218.784 480.853 221.706 485.901C222.031 483.911 222.191 481.881 222.191 479.811C222.191 476.528 221.788 473.129 220.992 469.621C220.762 468.609 221.397 467.602 222.409 467.372C223.421 467.142 224.428 467.777 224.658 468.789C225.51 472.541 225.95 476.22 225.95 479.811C225.95 484.183 225.298 488.4 223.961 492.439C229.071 487.884 230.274 481.259 230.776 473.34C230.842 472.304 231.735 471.517 232.771 471.583C233.807 471.649 234.593 472.542 234.528 473.578C233.916 483.215 232.234 492.813 222.114 498.264C221.878 498.391 221.626 498.463 221.375 498.483C219.763 501.52 217.717 504.438 215.22 507.224C215.208 507.238 215.196 507.251 215.183 507.265C216.883 513.12 218.094 520.244 218.355 529.557C222.111 527.122 225.206 524.867 227.783 522.769C228.109 521.108 228.416 519.433 228.726 517.749C230.014 510.732 231.331 503.562 234.11 496.67C234.498 495.708 235.593 495.242 236.556 495.63C237.519 496.018 237.984 497.113 237.596 498.076C234.974 504.58 233.746 511.254 232.467 518.206C232.438 518.364 232.409 518.522 232.38 518.681C234.928 516.183 236.748 513.923 238.169 511.845C239.759 509.52 240.87 507.392 241.972 505.281C242.07 505.094 242.168 504.907 242.266 504.72C243.458 502.442 244.693 500.159 246.516 497.889C247.166 497.079 248.349 496.95 249.159 497.601C249.968 498.251 250.097 499.434 249.447 500.243C247.873 502.203 246.781 504.2 245.596 506.464C245.497 506.653 245.397 506.844 245.296 507.037C244.202 509.135 242.993 511.449 241.273 513.967C239.028 517.25 235.947 520.83 231.117 524.889C230.881 525.341 230.47 525.674 229.991 525.818C226.877 528.342 223.084 531.049 218.406 533.982C218.369 542.897 217.526 551.862 216.688 560.758C216.385 563.974 216.084 567.181 215.821 570.373C215.736 571.407 214.828 572.177 213.794 572.092C212.759 572.007 211.989 571.099 212.074 570.065C212.345 566.773 212.653 563.504 212.959 560.253C213.425 555.302 213.887 550.39 214.21 545.495C212.207 542.836 210.619 540.428 209.34 538.23C209.1 538.109 208.882 537.934 208.706 537.709C202.351 529.569 193.571 524.075 183.867 519.852C182.916 519.438 182.48 518.331 182.894 517.379C183.308 516.427 184.416 515.991 185.367 516.405C192.365 519.45 199.069 523.208 204.825 528.211C204.39 526.881 204.038 525.647 203.707 524.485C203.681 524.392 203.655 524.301 203.629 524.21C202.912 521.696 202.315 519.715 201.181 517.768C200.064 515.849 198.365 513.87 195.337 511.565C194.511 510.936 194.351 509.757 194.979 508.931C195.608 508.105 196.787 507.945 197.613 508.574C200.944 511.109 203.013 513.443 204.43 515.876C205.831 518.282 206.535 520.692 207.244 523.179C207.275 523.288 207.306 523.398 207.338 523.509C208.502 527.598 209.886 532.458 214.528 539.45C214.605 537.429 214.648 535.408 214.648 533.387C214.648 518.834 212.416 509.559 209.493 502.296C208.211 501.565 206.955 500.798 205.731 499.995C201.996 498.728 197.942 498.023 193.933 498.023C190.636 498.023 187.39 498.5 184.385 499.514C183.401 499.846 182.335 499.318 182.003 498.334C181.671 497.351 182.199 496.284 183.183 495.952C186.623 494.791 190.28 494.264 193.933 494.264C195.485 494.264 197.04 494.359 198.582 494.542C189.953 486.847 184.154 476.756 184.154 464.025C184.154 463.003 184.192 461.965 184.268 460.913C184.343 459.878 185.243 459.099 186.279 459.174C187.314 459.249 188.093 460.149 188.018 461.184C187.948 462.148 187.914 463.095 187.914 464.025C187.914 465.061 187.956 466.079 188.04 467.079C188.544 463.702 189.392 460.351 190.205 457.142C190.436 456.228 190.664 455.326 190.881 454.438C191.127 453.429 192.144 452.811 193.153 453.057C194.161 453.304 194.779 454.321 194.533 455.329C194.3 456.284 194.061 457.231 193.824 458.171C192.559 463.186 191.344 468.001 191.344 472.737C191.344 476.155 191.987 479.452 193.711 482.631C193.888 482.957 193.958 483.313 193.934 483.659C197.165 488.445 201.538 492.578 206.654 496.09C206.207 495.205 205.755 494.34 205.303 493.485C204.983 492.878 204.661 492.275 204.34 491.674C199.867 483.295 195.523 475.156 195.523 459.421C195.523 455.863 195.875 452.247 196.645 448.564C196.857 447.548 197.853 446.896 198.869 447.109ZM256.493 516.974C257.238 517.697 257.255 518.887 256.532 519.632C249.168 527.216 242.913 533.694 237.871 540.685C242.174 537.089 246.978 534.228 252.565 531.44C253.494 530.977 254.623 531.354 255.086 532.283C255.55 533.212 255.173 534.34 254.244 534.804C244.386 539.724 237.377 544.698 231.154 553.631C230.876 554.03 230.472 554.288 230.033 554.389C228.038 559.032 226.452 564.155 225.292 570.048C225.092 571.067 224.104 571.73 223.085 571.529C222.067 571.329 221.403 570.341 221.604 569.322C226.298 545.469 237.819 533.508 253.835 517.013C254.558 516.268 255.748 516.251 256.493 516.974ZM182.806 534.506C183.29 533.587 184.427 533.236 185.345 533.72C193.222 537.872 198.249 542.8 201.493 551.274C201.514 551.33 201.533 551.386 201.549 551.443C201.582 551.485 201.616 551.527 201.649 551.569C205.206 556.056 207.468 561.504 210.246 569.084C210.603 570.059 210.103 571.139 209.128 571.496C208.153 571.853 207.074 571.353 206.716 570.378C203.93 562.773 201.84 557.861 198.703 553.904C195.599 549.988 191.357 546.875 184.003 543.173C183.075 542.706 182.702 541.576 183.169 540.649C183.636 539.721 184.766 539.348 185.693 539.815C188.334 541.144 190.637 542.425 192.668 543.721C190.287 541.115 187.329 539.015 183.592 537.045C182.674 536.561 182.322 535.424 182.806 534.506Z" fill="#182947"/>
<path d="M181.976 539.014C180.777 540.096 180.312 541.346 180.312 542.685C180.312 548.333 183.422 547.741 183.76 547.741C187.243 547.741 189.384 544.555 189.384 541.474C189.384 539.113 188.135 537.043 186.007 537.043C184.888 537.043 183.527 537.614 181.976 539.014Z" fill="#79536B"/>
<path d="M230.074 469.022C226.443 467.727 221.596 466.486 217.772 466.486C212.941 466.486 200.859 467.232 200.859 472.058C200.859 475.033 206.373 480.431 218.152 480.431C223.523 480.431 234.047 479.442 234.047 474.039C234.047 471.981 232.521 469.894 230.074 469.022Z" fill="#A77697"/>
<path d="M208.825 498.663C200.676 498.708 191.711 501.059 191.711 509.334C191.711 514.361 195.173 519.584 200.596 519.584C207.883 519.584 215.472 511.419 215.472 505.007C215.472 501.434 213.025 498.613 206.799 498.613C206.046 498.613 205.239 498.655 204.374 498.741" fill="#A77697"/>
<path d="M197.493 445.57C191.672 443.395 177.088 448.114 173.902 454.17C171.98 457.824 174.817 460.78 178.457 462.699C186.948 467.175 202.206 463.782 205.619 457.294C207.68 453.377 206.72 449.917 202.219 447.544C200.639 446.711 198.888 446.092 197.493 445.57Z" fill="#A77697"/>
<path d="M227.938 488.645C228.155 489.612 228.485 490.535 228.91 491.41C232.777 499.387 244.161 503.85 250.928 500.562C255.649 498.269 256.14 492.412 253.839 487.666C250.609 481.003 240.662 476.625 233.848 479.936C232.486 480.597 231.248 481.566 230.21 482.886C228.856 484.609 227.46 486.513 227.938 488.645Z" fill="#79536B"/>
<path d="M244.569 539.509C241.051 531.806 231.91 528.701 223.656 528.701C217.255 528.701 206.446 531.069 206.446 537.618C206.446 542.28 210.716 544.733 215.338 544.733C218.649 544.733 221.978 543.578 225.367 543.578C233.212 543.578 237.268 551.278 242.703 551.278C245.732 551.278 247.86 548.632 247.86 545.65C247.86 545.039 247.77 544.414 247.581 543.795C246.99 541.862 245.393 541.312 244.569 539.509Z" fill="#79536B"/>
<path d="M190.871 516.632C189.389 516.169 187.54 515.945 185.523 515.945C178.354 515.945 166.17 519.058 166.17 526.328C166.17 530.382 169.325 535.27 175.063 535.27C180.823 535.27 184.703 529.993 189.696 527.296C191.875 526.119 199.124 527.015 199.124 523.268C199.124 521.214 197.287 519.302 195.452 518.321C194.019 517.556 192.414 517.115 190.871 516.632Z" fill="#79536B"/>
<path d="M183.2 490.331C176.544 491.563 168.72 498.119 168.72 504.914C168.72 508.905 170.95 513.241 175.198 513.241C181.342 513.241 181.833 507.054 184.622 503.507C186.244 501.443 193.415 499.316 193.415 495.887C193.415 492.674 187.883 490.229 184.365 490.229C183.971 490.229 183.582 490.26 183.2 490.331Z" fill="#79536B"/>
<path d="M262.308 515.442C260.854 514.166 258.138 507.381 249.433 507.381C245.948 507.381 244.002 509.554 244.002 511.988C244.002 519.887 251.964 522.029 254.871 526.945C256.866 530.317 256.763 538.513 261.737 538.513C265.634 538.513 269.003 531.52 269.003 527.041C269.003 522.321 266.121 518.791 262.308 515.442Z" fill="#79536B"/>
<path d="M180.949 471.781C180.83 471.401 175.448 467.893 170.744 467.893C169.911 467.893 169.019 467.933 167.938 467.933C167.094 467.933 166.136 467.909 165.003 467.823C167.982 471.538 170.966 472.923 174.469 472.923C176.435 472.923 178.564 472.487 180.949 471.781Z" fill="#473D63"/>
<path d="M186.374 467.028C185.784 456.12 175.738 455.298 175.387 455.02C175.794 462.052 180.112 464.792 186.374 467.028Z" fill="#473D63"/>
<path d="M196.717 458.881C200.249 456.091 205.474 450.09 205.474 447.086C205.474 446.446 205.184 446.121 204.705 446.121C203.462 446.121 200.938 448.308 198.853 452.885C197.972 454.817 197.404 456.875 196.717 458.881Z" fill="#473D63"/>
<path d="M189.935 458.372C189.943 458.132 189.947 457.893 189.947 457.655C189.947 451.817 187.578 446.378 181.78 444.314C181.665 444.365 181.551 444.417 181.437 444.469C181.368 445.044 181.334 445.619 181.334 446.19C181.334 451.597 184.397 456.68 189.935 458.372Z" fill="#473D63"/>
<path d="M209.604 463.973C214.375 461.108 215.991 456.711 217.598 451.615C216.949 451.458 216.349 451.384 215.795 451.384C210.815 451.384 209.532 457.326 209.532 462.042C209.532 462.718 209.558 463.368 209.604 463.973Z" fill="#473D63"/>
<path d="M214.69 473.817C214.698 473.823 214.706 473.827 214.714 473.833C218.026 471.239 223.134 467.488 223.134 462.724C223.134 462.6 223.131 462.474 223.123 462.349C223.133 462.342 223.142 462.333 223.149 462.323C222.789 462.161 222.429 462.086 222.072 462.086C218.221 462.086 214.689 470.852 214.689 473.72C214.689 473.753 214.69 473.786 214.69 473.817Z" fill="#473D63"/>
<path d="M209.095 473.138C205.495 465.408 200.401 464.401 199.716 463.497C199.46 463.995 199.343 464.511 199.343 465.034C199.343 468.909 205.742 473.139 209.043 473.139C209.061 473.139 209.078 473.139 209.095 473.138Z" fill="#473D63"/>
<path d="M227.747 476.873C229.629 476.566 239.568 468.15 239.568 464.844C239.568 464.654 239.534 464.48 239.465 464.326C239.478 464.33 239.492 464.334 239.505 464.334C239.511 464.334 239.516 464.334 239.521 464.332C239.257 464.305 238.998 464.293 238.744 464.293C232.526 464.293 229.433 472.007 227.747 476.873Z" fill="#473D63"/>
<path d="M185.357 494.864C182.562 490.071 179.293 486.201 173.267 486.172C175.499 491.609 179.263 494.781 185.357 494.864Z" fill="#473D63"/>
<path d="M175.353 499.786C173.721 499.552 172.022 499.41 170.319 499.41C162.356 499.41 161.019 501.949 159.561 502.081C161.121 503.213 162.842 503.666 164.611 503.666C168.319 503.666 172.242 501.678 175.353 499.786Z" fill="#473D63"/>
<path d="M176.032 507.084C176.013 507.074 175.994 507.063 175.975 507.052C170.226 509.027 166.687 511.447 162.529 515.793C167.9 515.173 173.093 511.593 176.032 507.084Z" fill="#473D63"/>
<path d="M175.353 523.888C173.42 523.365 171.526 522.857 169.528 522.857C166.779 522.857 156.106 525.49 155.017 527.965C156.041 529.122 157.695 529.586 159.642 529.586C164.972 529.586 172.504 526.113 175.353 523.888Z" fill="#473D63"/>
<path d="M177.897 528.301C175.13 531.476 173.132 536.442 172.576 540.61C172.521 540.648 172.466 540.686 172.411 540.724C175.711 538.576 177.919 532.933 177.919 528.966C177.919 528.738 177.912 528.517 177.897 528.301Z" fill="#473D63"/>
<path d="M185.018 521.002C185.728 519.149 186.407 516.926 186.407 514.834C186.407 512.977 185.871 511.224 184.346 509.929C184.101 509.977 183.856 510.026 183.61 510.075C182.717 511.496 182.335 512.886 182.335 514.25C182.335 516.571 183.441 518.814 185.018 521.002Z" fill="#473D63"/>
<path d="M194.683 511.328C190.244 511.151 188.27 508.767 184.965 507.711C185.858 507.461 186.739 507.339 187.592 507.339C190.488 507.339 193.062 508.745 194.683 511.328Z" fill="#473D63"/>
<path d="M201.974 507.084C198.177 504.901 196.729 502.158 194.637 498.61C199.351 499.45 201.364 502.581 201.974 507.084Z" fill="#473D63"/>
<path d="M206.213 507.084C205.826 505.537 205.544 503.581 205.544 501.59C205.544 497.505 206.732 493.267 210.648 492.069C211.056 493.675 211.286 495.298 211.286 496.881C211.286 500.826 209.86 504.523 206.213 507.084Z" fill="#473D63"/>
<path d="M208.587 514.553C210.272 515.622 212.152 516.092 214.044 516.092C217.413 516.092 220.823 514.601 223.253 512.348C223.194 512.151 223.135 511.955 223.076 511.758C221.799 511.326 220.525 511.138 219.262 511.138C215.558 511.138 211.943 512.752 208.587 514.553Z" fill="#473D63"/>
<path d="M232.664 489.433C230.233 488.643 225.981 487.299 223.256 487.299C222.591 487.299 221.917 487.559 221.262 487.559C221.1 487.559 220.939 487.543 220.78 487.504C223.21 489.403 225.607 490.607 228.193 490.607C229.614 490.607 231.092 490.243 232.664 489.433Z" fill="#473D63"/>
<path d="M235.546 489.602C234.745 488.496 234.377 486.921 234.377 485.249C234.377 482.124 235.662 478.66 237.801 477.276C237.962 478.38 238.044 479.435 238.044 480.459C238.044 483.657 237.244 486.542 235.546 489.602Z" fill="#473D63"/>
<path d="M242.328 489.942C242.325 489.783 242.324 489.624 242.324 489.466C242.324 484.276 243.997 479.543 249.071 477.514C249.446 477.72 249.82 477.927 250.195 478.133C250.232 478.513 250.25 478.882 250.25 479.241C250.25 484.264 246.685 487.265 242.328 489.942Z" fill="#473D63"/>
<path d="M247.585 496.901C248.123 497.276 248.8 497.435 249.548 497.435C252.256 497.435 255.897 495.352 257.303 493.925C257.301 493.936 257.299 493.947 257.297 493.958C256.65 492.927 255.78 492.525 254.82 492.525C252.19 492.525 248.879 495.538 247.585 496.901Z" fill="#473D63"/>
<path d="M254.197 511.667C252.54 510.985 251.577 508.026 251.577 505.36C251.577 503.555 252.018 501.884 252.982 501.144C254.821 502.492 255.589 504.454 255.589 506.54C255.589 508.256 255.069 510.056 254.197 511.667Z" fill="#473D63"/>
<path d="M255.893 520.324C259.45 518.443 263.962 513.729 268.558 513.729C269.425 513.729 270.295 513.897 271.163 514.283C270.284 519.271 264.626 520.616 259.802 520.616C258.378 520.616 257.027 520.498 255.893 520.324Z" fill="#473D63"/>
<path d="M261.997 527.792C264.329 530.833 267.541 534.535 271.271 535.545C271.54 535.082 271.809 534.619 272.078 534.156C270.714 530.373 265.674 528.731 261.997 527.792Z" fill="#473D63"/>
<path d="M250.976 517.608C248.784 516.704 245.309 515.466 242.258 515.466C240.436 515.466 238.765 515.907 237.61 517.126C237.662 517.264 237.714 517.402 237.766 517.54C239.761 518.377 241.716 518.702 243.684 518.702C246.063 518.702 248.462 518.227 250.976 517.608Z" fill="#473D63"/>
<path d="M225.542 534.75C224.797 533.716 224.056 530.425 224.056 527.504C224.056 525.376 224.454 522.419 226.569 522.419C228.563 522.419 229.171 524.82 229.171 527.017C229.171 528.281 228.969 529.478 228.715 530.111C227.978 531.943 227.03 533.496 225.542 534.75Z" fill="#473D63"/>
<path d="M220.286 535.26C220.268 535.275 220.249 535.29 220.231 535.305C219.752 532.831 217.811 526.209 214.238 526.209C214.057 526.209 213.873 526.226 213.684 526.261C213.693 530.792 216.085 533.719 220.286 535.26Z" fill="#473D63"/>
<path d="M210.452 536.448C208.813 536.211 207.209 536.143 205.615 536.143C203.507 536.143 201.416 536.262 199.283 536.271C200.413 537.996 202.2 538.669 204.1 538.669C206.363 538.669 208.787 537.714 210.452 536.448Z" fill="#473D63"/>
<path d="M231.477 540.012C231.465 539.87 231.459 539.725 231.459 539.579C231.459 535.934 235.06 531.359 238.045 529.757C238.406 529.964 238.767 530.171 239.128 530.378C239.271 531.049 239.34 531.675 239.34 532.261C239.34 536.431 235.882 538.549 231.477 540.012Z" fill="#473D63"/>
<path d="M241.989 544.256C243.401 543.99 244.716 543.868 245.988 543.868C248.668 543.868 251.157 544.411 253.956 545.297C253.978 545.405 254 545.513 254.023 545.621C252.424 546.58 250.945 546.977 249.507 546.977C247.013 546.977 244.642 545.783 241.989 544.256Z" fill="#473D63"/>
<path d="M184.17 542.558H184.132C181.463 542.558 172.68 543.597 172.321 547.182C173.567 548.017 174.773 548.373 175.926 548.373C179.219 548.373 182.072 545.469 184.17 542.558Z" fill="#473D63"/>
<path d="M201.126 555.458C198.925 554.225 196.728 553.593 194.506 553.593C192.62 553.593 190.716 554.048 188.774 554.975C188.789 554.961 188.803 554.945 188.818 554.93C190.463 556.243 192.527 556.739 194.647 556.739C196.886 556.739 199.188 556.186 201.126 555.458Z" fill="#473D63"/>
<path d="M216.217 558.683C217.557 557.238 223.636 550.715 226.436 550.715C226.746 550.715 227.015 550.795 227.234 550.97C224.893 554.785 220.258 556.785 216.217 558.683Z" fill="#473D63"/>
<path d="M188.748 479.928C185.812 478.989 181.444 476.514 179.077 476.514C178.439 476.514 177.736 476.628 177.113 476.628C176.825 476.628 176.553 476.603 176.314 476.532C176.562 479.859 179.876 481.134 183.253 481.134C185.277 481.134 187.324 480.676 188.748 479.928Z" fill="#473D63"/>
<path d="M230.799 507.594C231.091 507.037 231.222 506.49 231.222 505.955C231.222 501.92 223.783 498.592 222.523 497.018C222.118 497.58 221.939 498.17 221.939 498.773C221.939 502.376 228.309 506.437 230.799 507.594Z" fill="#473D63"/>
<path d="M230.12 563.096C230.839 563.146 231.587 563.177 232.347 563.177C235.255 563.177 238.35 562.727 240.755 561.211C240.751 561.213 240.746 561.214 240.742 561.215C240.746 561.009 240.75 560.803 240.755 560.597C239.721 559.708 238.636 559.349 237.54 559.349C234.952 559.349 232.301 561.35 230.12 563.096Z" fill="#473D63"/>
<path d="M198.583 486.887C199.263 485.871 199.589 484.308 199.589 482.653C199.589 480.023 198.767 477.16 197.246 475.895C196.317 476.55 195.969 477.622 195.969 478.862C195.969 481.63 197.706 485.233 198.583 486.887Z" fill="#473D63"/>
<path d="M211.299 555.967C211.092 552.549 207.145 546.546 203.114 546.546C202.767 546.546 202.419 546.591 202.073 546.686C203.094 551.757 206.953 553.489 211.299 555.967Z" fill="#473D63"/>
</g>
<defs>
<linearGradient id="paint0_linear_512_2" x1="287.578" y1="-0.0464155" x2="285.414" y2="362.337" gradientUnits="userSpaceOnUse">
<stop stop-color="#92C6CA"/>
<stop offset="0.139868" stop-color="#92C6CA"/>
<stop offset="0.414314" stop-color="#F9DFC0"/>
<stop offset="1" stop-color="#F9DFC0"/>
</linearGradient>
<linearGradient id="paint1_linear_512_2" x1="194.926" y1="88.5684" x2="281.195" y2="2.29943" gradientUnits="userSpaceOnUse">
<stop stop-color="#92C6CA"/>
<stop offset="0.599126" stop-color="#F9DFC0"/>
<stop offset="0.939453" stop-color="#F9DFC0"/>
<stop offset="1" stop-color="#F9DFC0"/>
</linearGradient>
<linearGradient id="paint2_linear_512_2" x1="122.93" y1="75.9588" x2="190.084" y2="8.80521" gradientUnits="userSpaceOnUse">
<stop stop-color="#92C6CA"/>
<stop offset="0.599126" stop-color="#F9DFC0"/>
<stop offset="0.939453" stop-color="#F9DFC0"/>
<stop offset="1" stop-color="#F9DFC0"/>
</linearGradient>
<linearGradient id="paint3_linear_512_2" x1="52.3857" y1="74.2278" x2="102.066" y2="24.5477" gradientUnits="userSpaceOnUse">
<stop stop-color="#92C6CA"/>
<stop offset="0.599126" stop-color="#F9DFC0"/>
<stop offset="0.939453" stop-color="#F9DFC0"/>
<stop offset="1" stop-color="#F9DFC0"/>
</linearGradient>
<linearGradient id="paint4_linear_512_2" x1="283.099" y1="37.1121" x2="314.942" y2="5.26884" gradientUnits="userSpaceOnUse">
<stop stop-color="#92C6CA"/>
<stop offset="0.599126" stop-color="#F9DFC0"/>
<stop offset="0.939453" stop-color="#F9DFC0"/>
<stop offset="1" stop-color="#F9DFC0"/>
</linearGradient>
<linearGradient id="paint5_linear_512_2" x1="477.227" y1="53.2547" x2="544.399" y2="-13.9173" gradientUnits="userSpaceOnUse">
<stop stop-color="#92C6CA"/>
<stop offset="0.599126" stop-color="#F9DFC0"/>
<stop offset="0.939453" stop-color="#F9DFC0"/>
<stop offset="1" stop-color="#F9DFC0"/>
</linearGradient>
<linearGradient id="paint6_linear_512_2" x1="392.794" y1="60.3476" x2="453.841" y2="-0.699661" gradientUnits="userSpaceOnUse">
<stop stop-color="#92C6CA"/>
<stop offset="0.599126" stop-color="#F9DFC0"/>
<stop offset="0.939453" stop-color="#F9DFC0"/>
<stop offset="1" stop-color="#F9DFC0"/>
</linearGradient>
<linearGradient id="paint7_linear_512_2" x1="147.627" y1="238.531" x2="147.627" y2="118.587" gradientUnits="userSpaceOnUse">
<stop stop-color="#F6D27D"/>
<stop offset="0.914863" stop-color="#F5B992"/>
<stop offset="1" stop-color="#F5B992"/>
</linearGradient>
<linearGradient id="paint8_linear_512_2" x1="217.72" y1="152.266" x2="571.372" y2="152.266" gradientUnits="userSpaceOnUse">
<stop stop-color="#F6D27D"/>
<stop offset="0.914863" stop-color="#F5B992"/>
<stop offset="1" stop-color="#F5B992"/>
</linearGradient>
<linearGradient id="paint9_linear_512_2" x1="285.342" y1="252.746" x2="285.342" y2="167.125" gradientUnits="userSpaceOnUse">
<stop stop-color="#182947"/>
<stop offset="0.00832792" stop-color="#E77D78"/>
<stop offset="0.00837989" stop-color="#E77D78"/>
<stop offset="0.106171" stop-color="#E77D78"/>
<stop offset="0.963687" stop-color="#F5B992"/>
<stop offset="1" stop-color="#F5B992"/>
</linearGradient>
<linearGradient id="paint10_linear_512_2" x1="280.622" y1="454.931" x2="280.622" y2="428.661" gradientUnits="userSpaceOnUse">
<stop stop-color="#1B6C77"/>
<stop offset="0.0530726" stop-color="#1B6C77"/>
<stop offset="0.353902" stop-color="#1B6C77"/>
<stop offset="1" stop-color="#182947"/>
</linearGradient>
<linearGradient id="paint11_linear_512_2" x1="-17.6306" y1="483.722" x2="368.464" y2="483.722" gradientUnits="userSpaceOnUse">
<stop stop-color="#0C3C5F"/>
<stop offset="0.047486" stop-color="#0C3C5F"/>
<stop offset="0.35009" stop-color="#0C3C5F"/>
<stop offset="1" stop-color="#182947"/>
</linearGradient>
</defs>
</svg>
