<svg width="33" height="18" viewBox="0 0 33 18" fill="none" xmlns="http://www.w3.org/2000/svg">
<g opacity="0.5">
<path d="M24.0479 17.6452C24.6605 17.8817 25.3874 18 26.2286 18C27.3775 18 28.4307 17.7287 29.3882 17.1862C30.3456 16.6277 31.1116 15.8457 31.686 14.8404C32.2605 13.8191 32.5477 12.6064 32.5477 11.2021C32.5477 9.79787 32.2605 8.59308 31.686 7.58777C31.1116 6.56649 30.3456 5.78457 29.3882 5.24202C28.4307 4.69947 27.3775 4.42819 26.2286 4.42819C25.0956 4.42819 24.1541 4.67553 23.4041 5.17021C23.2252 5.28691 23.0576 5.41925 22.9015 5.56723V0H17.4919V3.10466C18.6303 3.12646 19.7012 3.37929 20.6739 3.89204C21.5251 4.32106 22.2189 4.93915 22.7563 5.71272C22.806 5.78428 22.8544 5.85717 22.9015 5.93136C23.0003 6.08734 23.0933 6.24909 23.1804 6.41635C23.5728 7.15034 23.818 7.97966 23.9439 8.87998C24.2414 8.72063 24.5721 8.64096 24.936 8.64096C25.335 8.64096 25.694 8.7367 26.0132 8.92819C26.3323 9.11968 26.5876 9.40691 26.7791 9.78989C26.9706 10.1569 27.0663 10.6277 27.0663 11.2021C27.0663 11.7606 26.9706 12.2394 26.7791 12.6383C26.5876 13.0213 26.3323 13.3085 26.0132 13.5C25.694 13.6915 25.335 13.7872 24.936 13.7872C24.614 13.7872 24.3179 13.7248 24.0479 13.6V17.6452Z" fill="#8FADCC"/>
<path d="M22.5479 10.4675C22.5479 9.11108 22.3218 8.0041 21.8698 7.14655C21.8644 7.13647 21.8591 7.12642 21.8537 7.11641C21.4069 6.25471 20.7846 5.62439 19.9867 5.22545C19.2477 4.83335 18.4161 4.62653 17.4919 4.60499V17.9356H22.5479V10.4675Z" fill="#8FADCC"/>
<path fill-rule="evenodd" clip-rule="evenodd" d="M19.9867 5.22545C19.2048 4.81056 18.3191 4.60311 17.3298 4.60311C16.117 4.60311 15.0479 4.91428 14.1223 5.53662C13.6851 5.82809 13.2977 6.17487 12.96 6.57694C12.6706 6.14475 12.316 5.78999 11.8963 5.51269C11.0186 4.9063 10.0053 4.60311 8.85638 4.60311C7.83511 4.60311 6.90957 4.85045 6.07979 5.34513C5.74062 5.5408 5.42945 5.77913 5.14628 6.06011V4.84247H0V17.9356H5.40957V11.5446C5.40957 10.9542 5.48138 10.4914 5.625 10.1563C5.78457 9.80524 5.99202 9.54992 6.24734 9.39034C6.50266 9.23077 6.78989 9.15098 7.10904 9.15098C7.57181 9.15098 7.93085 9.32652 8.18617 9.67758C8.44149 10.0127 8.56915 10.5872 8.56915 11.401V17.9356H13.9787V11.5446C13.9787 10.9542 14.0505 10.4914 14.1941 10.1563C14.3537 9.80524 14.5612 9.54992 14.8165 9.39034C15.0718 9.23077 15.359 9.15098 15.6782 9.15098C16.109 9.15098 16.4601 9.32652 16.7314 9.67758C17.0027 10.0127 17.1383 10.5872 17.1383 11.401V17.9356H22.5479V10.4675C22.5479 9.09513 22.3165 7.97811 21.8537 7.11641C21.4069 6.25471 20.7846 5.62439 19.9867 5.22545ZM5.14628 8.60045V6.06011C5.12635 6.07988 5.10656 6.09987 5.0869 6.12007C4.70262 6.51501 4.37134 6.99074 4.09309 7.54726L5.14628 8.60045Z" fill="#E6F2FF"/>
<path d="M4.09309 7.54726L5.14628 8.60045V6.06011C5.12635 6.07988 5.10656 6.09987 5.0869 6.12007C4.70262 6.51501 4.37134 6.99074 4.09309 7.54726Z" fill="#E6F2FF"/>
</g>
</svg>
